<svg width="31" height="31" viewBox="0 0 31 31" fill="none" xmlns="http://www.w3.org/2000/svg">
<circle cx="15.3496" cy="15.8901" r="15" fill="black"/>
<path d="M17.267 12.6597H9.86133V20.6545H11.9226V18.0534H15.8722L17.6742 20.6545H19.9823L17.9951 18.0415C18.6123 17.9456 19.0566 17.7179 19.3282 17.3583C19.5997 16.9987 19.7355 16.4234 19.7355 15.6562V15.0569C19.7355 14.6014 19.6861 14.2419 19.5997 13.9662C19.5133 13.6905 19.3652 13.4508 19.1554 13.235C18.9332 13.0312 18.6863 12.8874 18.3901 12.7915C18.0939 12.7076 17.7236 12.6597 17.267 12.6597ZM16.9337 16.2915H11.9226V14.4216H16.9337C17.2176 14.4216 17.415 14.4696 17.5138 14.5535C17.6125 14.6374 17.6742 14.7932 17.6742 15.021V15.6922C17.6742 15.9319 17.6125 16.0877 17.5138 16.1716C17.415 16.2555 17.2176 16.2915 16.9337 16.2915Z" fill="white"/>
<path d="M21.9972 12.2609C22.7675 12.2609 23.3923 11.6342 23.3923 10.8611C23.3923 10.0881 22.7675 9.46143 21.9972 9.46143C21.2264 9.46143 20.6016 10.0881 20.6016 10.8611C20.6016 11.6342 21.2264 12.2609 21.9972 12.2609Z" fill="#F41240"/>
</svg>
