<svg width="143" height="29" viewBox="0 0 143 29" fill="none" xmlns="http://www.w3.org/2000/svg">
<g clip-path="url(#clip0_202_2854)">
<path fill-rule="evenodd" clip-rule="evenodd" d="M32.6227 1.53356C32.8973 1.79666 33.1144 2.11271 33.2606 2.46217C33.4068 2.81162 33.4791 3.18704 33.4728 3.56522V3.63823C33.4696 4.00656 33.3929 4.37064 33.247 4.7095C33.1011 5.04837 32.889 5.35534 32.6227 5.61275C32.3569 5.88447 32.0375 6.09933 31.6844 6.24402C31.3313 6.38872 30.9519 6.46018 30.5698 6.45398C29.807 6.4583 29.0731 6.16533 28.5269 5.63841C27.9807 5.1115 27.6659 4.39298 27.6508 3.63823V3.56522C27.6445 3.18704 27.7167 2.81162 27.8629 2.46217C28.0091 2.11271 28.2262 1.79666 28.5008 1.53356C28.7704 1.26228 29.0927 1.04788 29.4483 0.903297C29.8039 0.758712 30.1854 0.686944 30.5698 0.692326C30.9519 0.686133 31.3313 0.757594 31.6844 0.902289C32.0375 1.04698 32.3569 1.26184 32.6227 1.53356Z" fill="#F41240"/>
<path fill-rule="evenodd" clip-rule="evenodd" d="M136.794 23.7707V28.453H122.472V3.5652H128.294V23.7707H136.794ZM108.759 3.5652L118.831 28.453H113.297L111.325 23.1199H101.028L99.0391 28.453H93.6341L103.674 3.5652H108.759ZM102.632 18.7868H109.721L106.192 9.26337L102.632 18.7868ZM84.2835 3.5652H90.0414V28.453H85.2619L72.7357 13.3584V28.453H66.9618V3.5652H71.7734L84.2835 18.6598V3.5652ZM51.9817 8.0412C50.8383 8.02617 49.702 8.21987 48.6296 8.6126C47.6584 8.97344 46.7736 9.53017 46.0314 10.2475C45.2918 10.958 44.7172 11.8191 44.3473 12.7712C43.947 13.8039 43.751 14.9032 43.7699 16.0091C43.7506 17.1099 43.9467 18.2041 44.3473 19.2312C44.7257 20.1836 45.299 21.0483 46.0314 21.7708C46.7604 22.4929 47.6347 23.0553 48.5975 23.4215C49.6585 23.8153 50.7845 24.0092 51.9175 23.9929C53.0584 23.9941 54.1914 23.8063 55.2696 23.4374C55.6722 23.2974 56.0636 23.1276 56.4404 22.9294V15.6282H61.7492V25.7071C60.311 26.7575 58.6992 27.5523 56.9858 28.0562C55.2359 28.5973 53.414 28.8756 51.5807 28.8816C49.7191 28.901 47.87 28.5781 46.1276 27.9292C44.504 27.3361 43.0157 26.4298 41.749 25.2627C40.5273 24.0994 39.5514 22.7074 38.8781 21.1676C38.1909 19.5339 37.8471 17.7787 37.8677 16.0091C37.865 15.2652 37.9207 14.5223 38.0345 13.787C38.5776 13.388 39.0901 12.9498 39.5678 12.4759C41.4639 10.6446 42.703 8.25007 43.0963 5.65717C44.0381 4.99936 45.0625 4.46579 46.1436 4.06994C47.9098 3.42802 49.7796 3.11066 51.6609 3.13347C53.7222 3.1273 55.7667 3.49862 57.6915 4.22866C58.2517 4.43295 58.7981 4.67259 59.3274 4.94609C59.5102 5.04133 59.847 5.23814 60.3378 5.53337V10.8506C59.5442 10.2711 58.7078 9.75114 57.8358 9.29511C57.2622 9.02426 56.6667 8.80127 56.0555 8.62847C55.403 8.44557 54.7385 8.30768 54.0667 8.21579C53.3771 8.10622 52.6801 8.04786 51.9817 8.0412V8.0412ZM27.6511 15.8345C28.625 16.0497 29.6203 16.1562 30.6182 16.152C31.5776 16.1549 32.5346 16.057 33.4731 15.8599V28.453H27.6511V15.8345ZM23.4329 21.3644C23.415 22.6224 23.0727 23.8549 22.4385 24.9452C21.6954 26.287 20.5328 27.354 19.1249 27.9864C17.4926 28.7538 15.6848 29.0822 13.8835 28.9387C11.9139 28.8181 10.3154 28.4827 9.08794 27.9324C8.19535 27.5603 7.34753 27.0908 6.56025 26.5325V20.501C7.66638 21.5443 8.92917 22.4117 10.3037 23.0723C11.668 23.7241 12.748 24.0839 13.5435 24.1516C14.3079 24.2222 15.0789 24.1468 15.8145 23.9294C16.4171 23.7614 16.9611 23.4318 17.3863 22.9771C17.7117 22.5893 17.8878 22.1001 17.8835 21.5962C17.8929 21.2861 17.8273 20.9784 17.6923 20.6984C17.5573 20.4185 17.3567 20.1745 17.1073 19.9867C16.4922 19.5243 15.8208 19.1403 15.1088 18.8439C14.3037 18.4915 13.412 18.1265 12.44 17.7487C11.5269 17.398 10.6485 16.9644 9.81609 16.4535C9.06962 15.9947 8.40337 15.419 7.84334 14.7488C7.32445 14.1345 6.95857 13.4082 6.77517 12.6283C6.59071 11.8801 6.49702 11.1128 6.49609 10.3427C6.533 9.40507 6.72816 8.48018 7.07348 7.6063C7.5175 6.49334 8.26072 5.52181 9.22266 4.79689C10.262 3.96518 11.6862 3.48584 13.4954 3.34934C14.9669 3.23093 16.4478 3.30565 17.8996 3.57155V3.57155C17.8795 5.37842 18.2537 7.16829 18.9966 8.81894C18.4684 8.58561 17.9251 8.3873 17.3703 8.22532C16.496 7.93348 15.5754 7.80118 14.6533 7.83486C14.1383 7.85506 13.6305 7.96243 13.1521 8.1523C12.8985 8.26721 12.6722 8.4338 12.4881 8.64117C12.3334 8.82506 12.2029 9.02775 12.1 9.24432C11.9937 9.48427 11.9162 9.7357 11.869 9.9935C11.8119 10.3152 11.8011 10.6433 11.837 10.9681C11.8786 11.2609 11.9843 11.5413 12.1466 11.7897C12.3089 12.038 12.524 12.2484 12.7768 12.4061C13.3812 12.8422 14.0528 13.1788 14.7656 13.4029C15.5098 13.6484 16.4721 13.9954 17.6526 14.4441C18.717 14.823 19.7315 15.3271 20.6743 15.9456C21.5175 16.5375 22.1979 17.3287 22.6534 18.2471C23.1528 19.2128 23.4195 20.2797 23.4329 21.3644V21.3644Z" fill="#F41240"/>
</g>
<defs>
<clipPath id="clip0_202_2854">
<rect width="130.298" height="28.2464" fill="white" transform="translate(6.49609 0.692322)"/>
</clipPath>
</defs>
</svg>
